#N canvas 1364 241 450 528 12;
#X obj 235 360 panner~;
#X obj 250 414 dac~;
#X floatatom 298 329 5 0 1 0 - - - 0;
#X obj 126 203 noise~;
#X obj 153 308 *~ 0.5;
#X obj 132 256 bp~ 220 1;
#X floatatom 200 195 5 0 0 0 - - - 0;
#X floatatom 264 212 5 0 0 0 - - - 0;
#X obj 135 90 readsf~;
#X msg 103 47 open example.wav;
#X obj 115 142 table;
#X connect 0 0 1 0;
#X connect 0 1 1 1;
#X connect 2 0 0 1;
#X connect 3 0 5 0;
#X connect 4 0 0 0;
#X connect 5 0 4 0;
#X connect 6 0 5 1;
#X connect 7 0 5 2;
#X connect 9 0 8 0;
